# xmcd
#
# Track frame offsets:
#	150
#	26341
#	35546
#	45323
#	67752
#	85134
#	102777
#	115779
#	132345
#	157723
#	180460
#	197286
#	216110
#	235124
#	252567
#	277385
#	301100
#	316418
#
# Disc length: 4459 seconds
#
# Revision: 0
# Processed by: cddbd v1.5.1PL2 Copyright (c) Steve Scherf et al.
# Submitted via: audiograbber 1.83.01
#
DISCID=e2116912
DTITLE=diverse Interpreten - Oldies 4
DYEAR=1900
DGENRE=
TTITLE0=Radio ga ga
TTITLE1=We Will Rock You
TTITLE2=What A Wonderful World This Would Be
TTITLE3=Affirmation
TTITLE4=Mrs. Robinson
TTITLE5=Rudi
TTITLE6=Moscow - Wonderland
TTITLE7=Mit 66 Jahren
TTITLE8=Die Klavierlehrerin
TTITLE9=Said I Loved You but I Lied
TTITLE10=chase
TTITLE11=Wouldn't It Be Good
TTITLE12=Go let it out
TTITLE13=An den Ufern der Nacht ( n.V. )
TTITLE14=bis ans ende der welt
TTITLE15=Das Buch
TTITLE16=Wenn Ein Mensch Lebt
TTITLE17=Wenn Traeume sterben
EXTD=
EXTT0=
EXTT1=
EXTT2=
EXTT3=
EXTT4=
EXTT5=
EXTT6=
EXTT7=
EXTT8=
EXTT9=
EXTT10=
EXTT11=
EXTT12=
EXTT13=
EXTT14=
EXTT15=
EXTT16=
EXTT17=
PLAYORDER=
